<svg width="280" height="77" viewBox="0 0 280 77" fill="none" xmlns="http://www.w3.org/2000/svg">
<path fill-rule="evenodd" clip-rule="evenodd" d="M118.44 25.0084C117.426 24.713 116.125 24.5661 114.537 24.5661C113.725 24.5661 112.9 24.6349 112.058 24.7743C111.216 24.9155 110.413 25.146 109.65 25.4731C108.886 25.7983 108.177 26.2425 107.522 26.8C106.868 27.3594 106.306 28.0563 105.84 28.8945H105.651C105.683 28.0285 105.511 27.3037 105.138 26.7312C104.765 26.157 104.274 25.7147 103.665 25.4043C103.057 25.0939 102.372 24.8765 101.608 24.752C100.843 24.6275 100.072 24.5661 99.2934 24.5661C98.515 24.5661 97.7273 24.62 96.9321 24.7297C96.1369 24.8375 95.3659 25.0307 94.6174 25.3114C93.8689 25.5901 93.1595 25.9786 92.4913 26.4748C91.8193 26.971 91.235 27.6066 90.7366 28.3834H90.5499L91.3451 24.843H85.6406L82.1611 41.0823C82.4579 40.9206 82.7547 40.7552 83.0627 40.614C84.1006 40.1512 85.2393 39.7628 86.6635 39.7498L86.7587 39.7517V39.7498C86.7662 39.7517 86.7737 39.7517 86.7811 39.7517L86.8801 39.7535V39.7591C87.3355 39.7721 87.8134 39.826 88.2987 39.9096L89.2414 35.5051C89.4579 34.4179 89.7323 33.4738 90.059 32.6653C90.3857 31.8588 90.815 31.1841 91.3451 30.6415C91.8753 30.0969 92.5361 29.6936 93.3331 29.4297C94.1265 29.1677 95.1158 29.0339 96.3011 29.0339C97.9214 29.0339 98.9275 29.3684 99.3158 30.0375C99.7059 30.7046 99.7769 31.7974 99.5267 33.3177L96.1145 49.2837H102.006L104.949 35.5051C105.168 34.4179 105.442 33.4738 105.769 32.6653C106.097 31.8588 106.525 31.1841 107.055 30.6415C107.583 30.0969 108.248 29.6936 109.041 29.4297C109.836 29.1677 110.826 29.0339 112.011 29.0339C113.631 29.0339 114.637 29.3684 115.026 30.0375C115.416 30.7046 115.487 31.7974 115.237 33.3177L111.822 49.2837H117.716L121.221 32.7601C121.533 31.2696 121.665 30.004 121.619 28.9651C121.572 27.9262 121.285 27.0788 120.754 26.4283C120.222 25.776 119.452 25.3039 118.44 25.0084Z" fill="white"/>
<path fill-rule="evenodd" clip-rule="evenodd" d="M142.308 33.0844C142.183 34.14 141.934 35.4893 141.561 37.1322C141.216 38.7806 140.889 40.1113 140.577 41.1372C140.268 42.1612 139.853 42.9678 139.34 43.5569C138.825 44.1479 138.171 44.5512 137.376 44.7686C136.581 44.9842 135.528 45.0938 134.22 45.0938C132.911 45.0938 131.905 44.9842 131.205 44.7686C130.503 44.5512 130.02 44.1479 129.754 43.5569C129.489 42.9678 129.42 42.1612 129.544 41.1372C129.669 40.1113 129.902 38.7806 130.245 37.1322C130.619 35.4893 130.962 34.14 131.274 33.0844C131.586 32.0307 131.998 31.1981 132.513 30.5941C133.027 29.9882 133.682 29.5775 134.477 29.3601C135.272 29.1426 136.323 29.0348 137.634 29.0348C138.942 29.0348 139.946 29.1426 140.65 29.3601C141.348 29.5775 141.834 29.9882 142.099 30.5941C142.362 31.1981 142.433 32.0307 142.308 33.0844ZM144.598 25.1934C143.165 24.7752 141.171 24.5671 138.616 24.5671C136.058 24.5671 133.971 24.7752 132.349 25.1934C130.729 25.6134 129.42 26.3047 128.422 27.2656C127.425 28.2283 126.63 29.5162 126.038 31.1293C125.444 32.7443 124.899 34.7292 124.401 37.0894C123.901 39.446 123.606 41.4252 123.512 43.0235C123.419 44.6218 123.669 45.9023 124.261 46.8612C124.853 47.8239 125.866 48.5153 127.3 48.9334C128.733 49.3535 130.729 49.5635 133.284 49.5635C135.84 49.5635 137.929 49.3535 139.549 48.9334C141.171 48.5153 142.48 47.8239 143.478 46.8612C144.475 45.9023 145.268 44.6218 145.862 43.0235C146.454 41.4252 146.999 39.446 147.499 37.0894C147.996 34.7292 148.292 32.7443 148.386 31.1293C148.481 29.5162 148.231 28.2283 147.639 27.2656C147.047 26.3047 146.032 25.6134 144.598 25.1934Z" fill="white"/>
<path fill-rule="evenodd" clip-rule="evenodd" d="M168.491 36.3427C168.209 37.7403 167.93 38.9817 167.648 40.067C167.37 41.1543 166.987 42.0668 166.503 42.8139C166.02 43.5573 165.38 44.1241 164.586 44.5125C163.791 44.9009 162.725 45.0942 161.383 45.0942C159.888 45.0942 158.773 44.9084 158.042 44.5348C157.306 44.165 156.84 43.6111 156.638 42.8826C156.435 42.156 156.427 41.2472 156.616 40.16C156.802 39.0746 157.051 37.7997 157.362 36.3427C157.642 35.0399 157.947 33.923 158.273 32.99C158.602 32.0608 159.039 31.3081 159.584 30.7338C160.129 30.1614 160.814 29.7321 161.641 29.4533C162.468 29.1727 163.519 29.0333 164.795 29.0333C165.826 29.0333 166.651 29.1281 167.274 29.3158C167.898 29.5017 168.357 29.8585 168.656 30.3844C168.949 30.9122 169.074 31.6575 169.027 32.6183C168.982 33.5791 168.801 34.8225 168.491 36.3427ZM172.348 25.4037C171.209 24.8443 169.596 24.5656 167.509 24.5656C166.759 24.5656 166.005 24.612 165.24 24.7068C164.476 24.7979 163.737 24.9689 163.02 25.2179C162.303 25.4651 161.633 25.8238 161.01 26.2884C160.386 26.753 159.839 27.3607 159.373 28.1041H159.137L162.038 14.3719H156.147L148.712 49.285H154.605L155.163 45.6071H155.352C155.539 46.4119 155.843 47.0716 156.263 47.5827C156.685 48.0956 157.181 48.5008 157.76 48.7944C158.337 49.0899 158.997 49.2906 159.748 49.4003C160.495 49.5081 161.307 49.5638 162.178 49.5638C164.454 49.5638 166.292 49.2311 167.696 48.5621C169.098 47.8949 170.227 46.9657 171.086 45.7688C171.941 44.5738 172.604 43.1707 173.072 41.5557C173.541 39.9444 173.976 38.2049 174.381 36.3427C174.754 34.5418 175.004 32.9212 175.129 31.4791C175.254 30.0369 175.107 28.8029 174.685 27.7789C174.265 26.753 173.485 25.9613 172.348 25.4037Z" fill="white"/>
<path fill-rule="evenodd" clip-rule="evenodd" d="M195.936 24.8438L186.725 45.6531H186.632L184.855 24.8438H178.777L181.628 49.2845H184.482C184.2 49.9982 183.896 50.7267 183.569 51.4719C183.242 52.2153 182.845 52.8992 182.376 53.5181C181.909 54.1407 181.355 54.6536 180.715 55.055C180.078 55.4583 179.292 55.6609 178.355 55.6609C178.137 55.6609 177.928 55.6442 177.722 55.6144C177.521 55.5829 177.327 55.5513 177.138 55.5215L176.158 59.9447C176.593 59.9744 177.008 60.0134 177.396 60.0599C177.786 60.1064 178.2 60.1305 178.635 60.1305C180.351 60.1305 181.794 59.8722 182.96 59.3611C184.131 58.8482 185.142 58.1513 185.999 57.2685C186.858 56.382 187.597 55.3413 188.221 54.1481C188.844 52.9531 189.484 51.6578 190.138 50.2602L201.92 24.8438H195.936Z" fill="white"/>
<path fill-rule="evenodd" clip-rule="evenodd" d="M220.388 34.0622C220.201 35.1494 219.968 36.3908 219.686 37.7847C219.342 39.3365 218.984 40.5872 218.611 41.5332C218.237 42.481 217.791 43.217 217.278 43.7448C216.763 44.2707 216.156 44.6294 215.454 44.8153C214.754 45.0011 213.888 45.094 212.859 45.094C211.581 45.094 210.586 44.9546 209.865 44.6759C209.148 44.3952 208.652 43.9697 208.372 43.3954C208.09 42.8211 207.982 42.0666 208.045 41.1374C208.105 40.2063 208.279 39.0875 208.557 37.7847C208.868 36.3276 209.16 35.0546 209.423 33.9692C209.688 32.8839 210.078 31.9751 210.593 31.2466C211.107 30.5162 211.807 29.9661 212.697 29.5926C213.586 29.2209 214.776 29.0332 216.274 29.0332C217.612 29.0332 218.603 29.2283 219.241 29.6167C219.88 30.0033 220.276 30.5701 220.434 31.3154C220.589 32.0606 220.574 32.975 220.388 34.0622ZM224.082 25.5653C222.958 24.8999 221.259 24.5673 218.984 24.5673C217.239 24.5673 215.656 24.8237 214.241 25.3329C212.82 25.8459 211.566 26.9108 210.476 28.5221H210.287L211.318 24.8442H205.424L197.945 59.8521H203.836L206.782 46.0251H207.017C207.17 46.7704 207.461 47.3744 207.879 47.8408C208.299 48.3073 208.814 48.6623 209.423 48.9113C210.031 49.1604 210.701 49.3295 211.435 49.4224C212.165 49.5153 212.906 49.5636 213.655 49.5636C215.743 49.5636 217.472 49.2849 218.844 48.7255C220.214 48.1661 221.328 47.3744 222.187 46.3504C223.046 45.3263 223.729 44.0942 224.244 42.6501C224.757 41.208 225.204 39.5855 225.577 37.7847C225.982 35.9244 226.294 34.1867 226.512 32.5717C226.731 30.9585 226.658 29.5535 226.301 28.3585C225.943 27.1654 225.204 26.2324 224.082 25.5653Z" fill="white"/>
<path fill-rule="evenodd" clip-rule="evenodd" d="M245.541 41.7899C245.354 42.6578 245.076 43.3417 244.699 43.8379C244.326 44.3322 243.867 44.7151 243.322 44.9771C242.777 45.241 242.168 45.4046 241.498 45.4678C240.828 45.5291 240.104 45.5588 239.325 45.5588C238.326 45.5588 237.492 45.5291 236.822 45.4678C236.152 45.4046 235.631 45.241 235.256 44.9771C234.882 44.7151 234.655 44.3322 234.578 43.8379C234.5 43.3417 234.554 42.6578 234.741 41.7899C234.927 40.922 235.209 40.2455 235.582 39.766C235.958 39.2828 236.417 38.9334 236.962 38.7178C237.509 38.5004 238.108 38.3759 238.763 38.3443C239.418 38.3127 240.118 38.2978 240.867 38.2978C241.582 38.2978 242.269 38.322 242.924 38.3666C243.577 38.4149 244.132 38.5468 244.584 38.7624C245.035 38.9817 245.354 39.3292 245.541 39.8087C245.73 40.2919 245.73 40.9517 245.541 41.7899ZM252.158 26.1955C251.395 25.545 250.337 25.1101 248.98 24.8908C247.622 24.6752 245.961 24.5656 243.999 24.5656C242.597 24.5656 241.248 24.6195 239.954 24.7291C238.661 24.8388 237.485 25.1324 236.424 25.6138C235.366 26.0951 234.438 26.8311 233.643 27.8235C232.848 28.8178 232.264 30.1967 231.888 31.9679H237.781C237.968 31.1929 238.226 30.5703 238.552 30.1057C238.881 29.6411 239.277 29.2972 239.745 29.0817C240.212 28.8661 240.733 28.7248 241.309 28.6635C241.886 28.6003 242.502 28.5687 243.156 28.5687C244.373 28.5687 245.308 28.6635 245.961 28.8475C246.618 29.0333 247.077 29.3363 247.344 29.7544C247.608 30.1744 247.708 30.7245 247.647 31.4085C247.583 32.0905 247.443 32.9287 247.227 33.923L246.572 37.0898H246.385C246.166 36.4059 245.83 35.8781 245.381 35.5045C244.927 35.1328 244.395 34.8541 243.788 34.6664C243.182 34.4805 242.519 34.3727 241.802 34.3411C241.085 34.3114 240.352 34.2928 239.605 34.2928C238.076 34.2928 236.723 34.4099 235.536 34.644C234.35 34.8745 233.314 35.2815 232.428 35.8539C231.537 36.4282 230.798 37.1957 230.206 38.1584C229.615 39.1211 229.163 40.3291 228.851 41.7899C228.508 43.4327 228.446 44.769 228.663 45.793C228.881 46.8151 229.325 47.6087 229.996 48.1663C230.668 48.7257 231.547 49.0973 232.639 49.2851C233.729 49.469 234.976 49.5638 236.378 49.5638C237.094 49.5638 237.843 49.5378 238.623 49.4951C239.402 49.4467 240.165 49.3148 240.914 49.0973C241.66 48.8799 242.362 48.5454 243.017 48.0956C243.671 47.6459 244.233 47.0196 244.699 46.2111H244.841L243.954 49.2851H249.844L253.116 33.9676C253.553 31.9195 253.693 30.2748 253.538 29.0333C253.379 27.7937 252.92 26.8478 252.158 26.1955Z" fill="white"/>
<path fill-rule="evenodd" clip-rule="evenodd" d="M274.016 24.8438L264.804 45.6531H264.71L262.933 24.8438H256.857L259.708 49.2845H262.56C262.28 49.9982 261.976 50.7267 261.647 51.4719C261.32 52.2153 260.923 52.8992 260.456 53.5181C259.988 54.1407 259.433 54.6536 258.795 55.055C258.158 55.4583 257.369 55.6609 256.435 55.6609C256.217 55.6609 256.006 55.6442 255.802 55.6144C255.599 55.5829 255.407 55.5513 255.218 55.5215L254.236 59.9447C254.673 59.9744 255.086 60.0134 255.476 60.0599C255.864 60.1064 256.278 60.1305 256.715 60.1305C258.431 60.1305 259.872 59.8722 261.04 59.3611C262.209 58.8482 263.221 58.1513 264.077 57.2685C264.938 56.382 265.675 55.3413 266.301 54.1481C266.922 52.9531 267.562 51.6578 268.218 50.2602L280 24.8438H274.016Z" fill="white"/>
<path fill-rule="evenodd" clip-rule="evenodd" d="M83.7891 53.2525C83.8021 53.2321 83.8152 53.2135 83.8283 53.193C83.832 53.1875 83.8376 53.18 83.8413 53.1745C83.8637 53.1373 83.8899 53.1038 83.9123 53.0667C83.9347 53.0295 83.9627 52.996 83.9851 52.9589L84.0131 52.9087L84.0411 52.8567L84.1195 52.7173L84.0728 52.6188L84.0336 52.6113L83.9552 52.5946L83.9197 52.6058L83.608 52.7098L83.5912 52.7228L83.5763 52.734L83.4568 52.8362L83.2664 52.9979L83.2533 53.0072L83.0107 53.2358L82.8277 53.4086C82.7923 53.4402 82.7531 53.4681 82.7176 53.4997C80.1547 55.702 77.4517 57.7054 74.6181 59.5248C73.6475 60.1474 72.66 60.744 71.6576 61.3201C71.3496 61.4985 71.0509 61.69 70.7411 61.8628C65.9251 64.5353 60.8664 66.6075 55.5165 67.9567C54.1483 68.3024 52.7669 68.5979 51.3744 68.8395C50.4728 68.9974 49.5656 69.1387 48.6528 69.2353C47.9659 69.3078 47.2789 69.3952 46.592 69.4565C45.9853 69.5104 45.3768 69.5531 44.7701 69.5791C43.9133 69.6126 43.0584 69.6386 42.2016 69.6423C41.4997 69.646 40.7979 69.6182 40.0979 69.5959C39.5621 69.5773 39.0245 69.5438 38.4907 69.5197L38.3973 69.5122C38.0277 69.4769 37.6581 69.4453 37.2885 69.4119C36.9899 69.3859 36.6912 69.3636 36.3944 69.3282C35.8213 69.2595 35.2483 69.187 34.6771 69.1034C34.0965 69.0197 33.5141 68.9361 32.9355 68.832C31.7893 68.6276 30.6488 68.3897 29.5176 68.1147C27.2309 67.5553 24.9891 66.8621 22.8051 65.983C20.3112 64.9832 17.9312 63.7621 15.6968 62.2661C13.104 60.5265 10.8005 58.4674 8.82187 56.0532C8.3216 55.4455 7.87547 54.8025 7.43493 54.1576C6.7536 53.1577 6.11893 52.1281 5.58693 51.0335C4.78987 49.3925 4.1552 47.6901 3.66613 45.9357C3.3208 44.698 3.0464 43.4454 2.84853 42.176C2.77947 41.743 2.73093 41.3081 2.6768 40.8733C2.65627 40.7079 2.63013 40.5425 2.61147 40.3771C2.60587 40.3362 2.60027 40.2953 2.59467 40.2544C2.5592 39.9347 2.548 39.6132 2.52373 39.2936C2.49387 38.9274 2.4528 38.5613 2.43973 38.1952C2.43973 38.1841 2.43973 38.1729 2.43973 38.1618C2.39867 36.9612 2.39493 35.7606 2.4696 34.5601C2.5256 33.6866 2.60773 32.8187 2.72347 31.9545C2.82613 31.1591 2.96053 30.3692 3.1248 29.5849C3.6064 27.286 4.32507 25.0596 5.27893 22.9112C7.308 18.3449 10.22 14.4347 14.0429 11.201C16.4155 9.19384 19.0232 7.54909 21.8419 6.23516C24.1845 5.14052 26.6261 4.33209 29.1331 3.70764C30.1523 3.45303 31.1808 3.23373 32.2149 3.04789C32.7843 2.94567 33.3555 2.8639 33.9267 2.77841C34.2739 2.72637 34.6211 2.68177 34.9683 2.64274C35.4387 2.58513 35.9109 2.52937 36.3832 2.48477C36.7827 2.4476 37.184 2.42344 37.5853 2.40114C38.1939 2.36583 38.8005 2.3268 39.4091 2.30636C39.8757 2.29149 40.3424 2.29707 40.8072 2.30264C40.9211 2.30264 41.0349 2.29892 41.1488 2.30078C41.7648 2.31193 42.3827 2.33609 42.9987 2.36397L43.1237 2.37512C43.3571 2.39371 43.5923 2.41415 43.8256 2.43459C43.9357 2.44388 44.044 2.45318 44.1523 2.46247C44.1896 2.46619 44.2269 2.46804 44.2643 2.47176C44.7253 2.51636 45.1883 2.55353 45.6475 2.61672C46.3624 2.71336 47.0755 2.82487 47.7829 2.9624C49.112 3.21886 50.4205 3.54781 51.6992 3.98455C55.7275 5.36539 59.3507 7.40042 62.5949 10.0469C63.4163 10.7159 64.2283 11.3943 64.9973 12.1451C66.8192 13.9236 68.3928 15.8992 69.6939 18.0866C71.1835 20.5862 72.1821 23.2661 72.6973 26.1263C72.8672 27.0667 72.9979 28.0127 73.0763 28.9642C73.0912 29.1501 73.0912 29.3378 73.1043 29.5236C73.1416 30.044 73.1827 30.5643 73.1845 31.0866C73.1864 31.8578 73.1845 32.6291 73.1379 33.3985C73.0987 34.0137 73.0501 34.6288 72.9811 35.2403C72.8821 36.0951 72.7459 36.95 72.5723 37.7956C72.2736 39.2564 71.8685 40.6856 71.3235 42.0775C70.7635 43.5104 70.0691 44.8708 69.1731 46.1253C68.5291 47.0248 67.7936 47.8425 66.9312 48.5376C66.4981 48.8907 66.0389 49.2011 65.5387 49.4538C64.8424 49.8088 64.1051 50.0299 63.3248 50.095C62.6285 50.1544 61.9453 50.0615 61.2845 49.8292C60.2597 49.4705 59.4253 48.8628 58.7477 48.0507C58.6339 47.915 58.5144 47.7849 58.4099 47.6362C57.9787 47.0285 57.6595 46.3632 57.4075 45.6644C57.0715 44.7314 56.8717 43.7669 56.7429 42.7875C56.6235 41.8806 56.5805 40.968 56.5581 40.0518C56.5395 39.3419 56.5805 38.6357 56.6085 37.9276C56.6272 37.4964 56.6589 37.0653 56.6869 36.636C56.7019 36.3999 56.7224 36.1639 56.7485 35.9297C56.8213 35.2774 56.8923 34.6232 56.9725 33.9709C57.0584 33.2982 57.148 32.6272 57.2507 31.9582C57.3552 31.2576 57.4747 30.5569 57.5941 29.86C57.7659 28.8583 57.9469 27.8566 58.1205 26.8567C58.2736 25.9758 58.4192 25.0949 58.5779 24.2158C58.6115 24.0207 58.5704 23.8739 58.4173 23.7531L58.3035 23.649C57.9469 23.3275 57.5363 23.0952 57.0883 22.926C56.4648 22.69 55.8171 22.5785 55.1525 22.5581C54.7512 22.5469 54.3499 22.5581 53.9467 22.6027C53.1832 22.69 52.4459 22.8647 51.7328 23.1491C50.6389 23.5839 49.6608 24.2047 48.7629 24.9574C47.8352 25.736 47.0269 26.6244 46.2915 27.5834C45.4272 28.7152 44.6824 29.9213 44.0085 31.1739C42.9184 33.1978 42.0672 35.3183 41.3448 37.4927C41.2291 37.8347 41.0872 38.1655 40.9808 38.513C40.2752 40.8101 39.704 43.1443 39.1851 45.4916C39.0227 46.2256 38.8659 46.9616 38.7072 47.6957C38.6363 48.0246 38.5653 48.3536 38.4944 48.6844L38.4813 48.7327L38.4627 48.8089L38.4496 48.861L38.4085 48.9316L38.3395 48.8461L38.3357 48.8331L38.3227 48.7903L38.3133 48.7587C38.3021 48.7197 38.2984 48.6788 38.2853 48.6398C38.2853 48.6361 38.2853 48.6342 38.2853 48.6324C38.2219 48.4168 38.192 48.1956 38.136 47.9782C37.9325 47.2032 37.7291 46.4282 37.6021 45.6384C37.4808 44.8857 37.3893 44.1312 37.3333 43.3748C37.2792 42.6258 37.2344 41.8787 37.2325 41.1279C37.2307 40.5127 37.2475 39.8957 37.2736 39.2806C37.3035 38.5502 37.3557 37.8217 37.4285 37.0969C37.4491 36.898 37.4789 36.701 37.5032 36.504C37.5685 35.9483 37.6357 35.3908 37.7104 34.8351C37.8635 33.694 38.0707 32.5641 38.2965 31.4378C38.6475 29.6723 39.0581 27.9235 39.4856 26.1802C39.9597 24.2344 40.4357 22.2886 40.908 20.3428C40.9995 19.9637 41.0816 19.5827 41.1675 19.2017L41.1021 19.0419L40.9659 18.9694C40.0083 18.4843 38.9872 18.2055 37.9157 18.1256C37.2979 18.0829 36.6781 18.1015 36.064 18.1907C35.2968 18.3059 34.5501 18.4973 33.824 18.7705C31.9331 19.4842 30.2848 20.5714 28.8419 21.9727C27.9888 22.7997 27.2384 23.7159 26.5589 24.6879C25.6723 25.9535 24.9219 27.3009 24.2592 28.6947C23.436 30.4343 22.7547 32.2314 22.1517 34.0564C21.336 36.5356 20.6659 39.0557 20.0536 41.5925C19.8744 42.3396 19.7008 43.0886 19.5253 43.8357C19.4413 44.1962 19.3555 44.5549 19.2715 44.9154C19.1931 45.2425 19.1165 45.5696 19.0381 45.8967C18.9709 46.1866 18.9019 46.4765 18.8347 46.7646C18.8048 46.891 18.7749 47.0155 18.7469 47.14L18.6181 47.6474L18.4949 47.7087L18.2915 47.6362C18.1981 47.5972 18.1141 47.5414 18.0245 47.4968C17.5709 47.2757 17.1453 47.0081 16.7627 46.6754C16.744 46.6605 16.7216 46.6494 16.7048 46.6327C16.7011 46.6289 16.6992 46.6252 16.6955 46.6234C16.1485 46.1346 15.7043 45.564 15.3291 44.9377C15.3011 44.8913 15.2843 44.8374 15.2581 44.7909C14.9669 44.2854 14.7112 43.7613 14.4965 43.2186C14.1885 42.4437 13.9421 41.6501 13.7088 40.851L13.6453 40.6465L13.5035 40.5517C13.2683 40.5778 13.0312 40.5964 12.7979 40.6335C12.0755 40.7506 11.3587 40.8974 10.6475 41.0758C9.79813 41.2877 8.95067 41.5107 8.09947 41.717C7.8064 41.7876 7.8176 41.8192 7.87547 42.0645C8.1144 43.1183 8.4224 44.1516 8.82 45.157C9.2848 46.3372 9.856 47.4634 10.5877 48.5023C11.1477 49.2977 11.788 50.0188 12.5421 50.6376C13.0069 51.0149 13.4979 51.355 14.0429 51.6096C14.8531 51.9888 15.7024 52.2155 16.5947 52.3047C17.2293 52.3679 17.8547 52.34 18.4725 52.2062C20.0088 51.8717 21.3136 51.1264 22.3813 49.9723C23.0235 49.281 23.5349 48.5004 23.9699 47.6678C24.3357 46.9635 24.6419 46.2349 24.9125 45.4897C25.3792 44.2036 25.7413 42.8878 26.0811 41.5646C26.2696 40.8305 26.4563 40.0964 26.6429 39.3623C26.7848 38.8029 26.9248 38.2435 27.0723 37.686C27.6267 35.5878 28.3491 33.5435 29.2469 31.5661C29.9059 30.1109 30.6656 28.7133 31.5877 27.405C32.0581 26.7378 32.5771 26.1077 33.1389 25.5186C33.1389 25.5167 33.1408 25.5168 33.1408 25.5149C33.1669 25.487 33.1875 25.4554 33.2136 25.4275L33.2603 25.3867L33.3368 25.3179L33.3592 25.2993L33.3741 25.2863L33.3984 25.29L33.4115 25.316L33.4077 25.3253L33.3797 25.4108L33.3349 25.5446L33.3312 25.5576V25.5595L33.3237 25.5781C32.732 27.2767 32.2355 29.0032 31.8323 30.7558C31.5933 31.7872 31.388 32.8242 31.2163 33.8687C31.1136 34.4969 31.0296 35.1269 30.9419 35.7569C30.8915 36.1342 30.8448 36.5114 30.8056 36.8906C30.7477 37.4202 30.6936 37.9518 30.6469 38.4833C30.6115 38.9033 30.5965 39.3233 30.5629 39.7452C30.5555 39.8121 30.5592 39.879 30.5555 39.9459C30.5069 40.6279 30.492 41.31 30.4864 41.9921C30.4771 43.0607 30.5163 44.1274 30.6301 45.1923C30.7123 45.9803 30.8299 46.7609 31.0128 47.5303C31.1864 48.2625 31.416 48.9743 31.7464 49.6508C31.9835 50.134 32.2672 50.5856 32.6293 50.9852C33.0437 51.4442 33.5347 51.7918 34.1133 52.0166C34.5688 52.1932 35.0411 52.3028 35.5245 52.34C35.7224 52.3549 35.9203 52.353 36.12 52.3549C36.5288 52.3586 36.9395 52.3419 37.3464 52.275C38.3301 52.1133 39.2709 51.8196 40.1632 51.3755C40.7288 51.0948 41.2533 50.7529 41.72 50.3236C41.9253 50.134 42.1083 49.9277 42.2912 49.7196C42.5619 49.4092 42.8157 49.0858 43.0416 48.7383C43.4299 48.1417 43.7528 47.5117 44.0384 46.8612C44.4565 45.9097 44.7888 44.9284 45.0912 43.9342C45.2891 43.2763 45.4589 42.6091 45.6381 41.9456C45.7819 41.4104 45.9368 40.877 46.0787 40.3417C46.3848 39.1895 46.6965 38.0391 47.0755 36.9092C47.3816 35.9929 47.7307 35.0934 48.1749 34.233C48.4792 33.6457 48.8227 33.0863 49.2371 32.5715C49.5805 32.144 49.9651 31.7631 50.4019 31.4341C50.4112 31.4267 50.4187 31.4155 50.428 31.4081L50.4448 31.3988L50.54 31.343L50.5848 31.317L50.6259 31.343V31.3876V31.4341C50.6147 31.4992 50.6072 31.5661 50.596 31.6311C50.5923 31.6478 50.5904 31.6627 50.5885 31.6794C50.3384 33.0212 50.1181 34.3686 49.9445 35.7235C49.8307 36.5988 49.7392 37.4778 49.6664 38.3569C49.5973 39.2062 49.5637 40.0593 49.5563 40.9123C49.5525 41.4215 49.56 41.9307 49.5824 42.4381C49.6048 42.9566 49.6421 43.4714 49.7 43.9881C49.7859 44.7444 49.9053 45.4934 50.0864 46.2331C50.3104 47.1549 50.624 48.0451 51.0776 48.8814C51.4677 49.6006 51.9493 50.2511 52.5541 50.8068C52.9517 51.1747 53.3979 51.4628 53.8925 51.6858C54.6168 52.0111 55.384 52.1597 56.1699 52.2136C56.6085 52.2452 57.0491 52.2341 57.4877 52.2062C57.7285 52.1913 57.9693 52.1783 58.2083 52.1486C59.0688 52.0408 59.9163 51.8661 60.7507 51.6338C62.3672 51.1878 63.9147 50.5726 65.4173 49.8348C67.6835 48.7234 69.6677 47.2385 71.3739 45.3875C72.6525 44.0011 73.7333 42.479 74.5509 40.7803C75.376 39.0668 75.9528 37.2716 76.3597 35.4187C76.5912 34.3649 76.7611 33.3 76.8768 32.2277C76.9496 31.5531 77.0037 30.8784 77.028 30.2019C77.0411 29.7968 77.0149 29.3917 77.0149 28.9865C77.0149 28.4457 77.0336 27.9049 76.9981 27.3659C76.944 26.5556 76.8656 25.7509 76.7443 24.9481C76.5819 23.8497 76.3448 22.7662 76.0181 21.705C75.4339 19.7982 74.6163 17.9955 73.6139 16.2746C72.2456 13.9218 70.5637 11.8106 68.6 9.92235C67.4763 8.84073 66.2741 7.87804 65.0347 6.97297C62.6659 5.23902 60.1104 3.79313 57.3253 2.70407C55.412 1.95511 53.4483 1.36783 51.4416 0.929233C50.6165 0.748962 49.7859 0.590992 48.9477 0.473909C48.4792 0.408863 48.0088 0.341958 47.5384 0.286204C47.0269 0.224874 46.5136 0.165404 46.0003 0.126376C45.4869 0.0854895 44.9699 0.0706217 44.4547 0.0408863L44.1523 0H40.8072L40.5347 0.0408863C39.9672 0.0687633 39.3997 0.083631 38.8341 0.124517C38.2891 0.163545 37.7459 0.223016 37.2027 0.284345C36.6389 0.345675 36.0752 0.408863 35.5152 0.496211C34.7928 0.60586 34.0704 0.728519 33.3517 0.869763C31.6736 1.20429 30.0197 1.63917 28.3939 2.17998C25.1795 3.24302 22.1424 4.6852 19.2752 6.47862C16.2848 8.35009 13.5128 10.4985 10.9741 12.9405C8.73787 15.0945 6.80773 17.4956 5.20053 20.1495C3.4776 22.9892 2.20453 26.0204 1.35147 29.2281C1.02293 30.4603 0.7616 31.7054 0.56 32.9618C0.448 33.6624 0.356533 34.3649 0.283733 35.0711C0.199733 35.8963 0.1288 36.7252 0.0989333 37.5578C0.0914667 37.7622 0.0877333 37.9685 0 38.1618V40.8733L0.0970667 41.3843C0.121333 41.7412 0.138133 42.1017 0.166133 42.4604C0.210933 42.9696 0.250133 43.4826 0.315467 43.9918C0.393867 44.6144 0.4928 45.2314 0.595467 45.8502C0.819467 47.1976 1.1368 48.5246 1.5232 49.8366C2.18027 52.0631 3.0408 54.1892 4.08613 56.2223C5.04 58.0789 6.14693 59.8612 7.42933 61.5543C8.62587 63.1321 9.9624 64.5854 11.4072 65.9421C13.3112 67.7281 15.344 69.3506 17.5485 70.7593C20.5091 72.6493 23.6787 74.0878 27.048 75.0988C28.4387 75.5169 29.8499 75.8589 31.2779 76.134C32.088 76.2882 32.9 76.4276 33.7195 76.528C34.3131 76.6004 34.9048 76.6803 35.4984 76.7473C35.8157 76.7844 36.1349 76.8049 36.4541 76.8272C37.0925 76.8755 37.7309 76.9182 38.3675 76.9647L38.5168 77H42.1699L42.3771 76.9573C42.9632 76.9164 43.5493 76.8718 44.1373 76.8365C44.7664 76.7956 45.3899 76.725 46.0152 76.6525C46.7525 76.567 47.4861 76.461 48.2197 76.3458C49.2389 76.1823 50.2507 75.9853 51.2549 75.7585C53.9243 75.1545 56.5301 74.3461 59.0725 73.3388C63.2725 71.6755 67.2019 69.5178 70.8792 66.9048C71.9413 66.1521 72.9568 65.3474 73.9517 64.5204C75.9211 62.8812 77.7709 61.1082 79.4603 59.1606C80.4515 58.0176 81.3643 56.8171 82.2341 55.5867C82.4376 55.2968 82.6243 54.9976 82.8221 54.704C83.1451 54.2208 83.4829 53.7487 83.7891 53.2525Z" fill="white"/>
<path fill-rule="evenodd" clip-rule="evenodd" d="M87.4809 43.7371C87.214 43.6981 86.9508 43.6721 86.7025 43.6684C85.1644 43.6461 83.0774 44.9303 80.9681 46.6531C80.7721 46.8129 80.578 46.9746 80.3838 47.14C76.6804 50.2975 73.0628 54.5776 72.3796 55.4009L72.262 55.5421C72.262 55.5421 72.5644 55.7651 73.2028 55.7558C73.9532 55.7466 75.1758 55.412 77.0164 53.9643C77.7929 53.351 78.87 52.5556 80.0254 51.8178C80.2942 51.6468 80.5668 51.4814 80.8412 51.3197C80.8692 51.303 80.8972 51.2844 80.9233 51.2677C80.9326 51.2639 80.942 51.2584 80.9513 51.2528C80.9849 51.2323 81.0185 51.2156 81.0521 51.1952C81.1044 51.1654 81.1566 51.1376 81.2108 51.1078C81.6849 50.8402 82.1609 50.5949 82.6257 50.3867C84.7313 49.4501 86.5756 49.3032 86.8518 51.4368C86.9284 52.0371 86.8836 52.8139 86.6838 53.8045C86.5382 54.5311 86.3758 55.1816 86.2134 55.8358C86.0921 56.3283 85.9708 56.7984 85.842 57.2519C84.2964 62.7307 82.4036 65.3251 82.4036 65.3251C85.6049 64.2546 88.2518 60.4522 89.9244 57.2519C91.0257 55.1426 91.7089 53.2897 91.834 52.6634C93.1257 46.2052 90.0102 44.107 87.4809 43.7371Z" fill="white"/>
</svg>
